<mxfile host="app.diagrams.net" modified="2023-07-11T16:29:04.539Z" agent="Mozilla/5.0 (Windows NT 10.0; Win64; x64) AppleWebKit/537.36 (KHTML, like Gecko) Chrome/114.0.0.0 Safari/537.36" etag="I80srQGb8yckEVQBvgIg" version="21.6.2" type="device">
  <diagram name="Page-1" id="HqNI9F9AOrJbzQlvQdlt">
    <mxGraphModel dx="538" dy="324" grid="1" gridSize="10" guides="1" tooltips="1" connect="1" arrows="1" fold="1" page="1" pageScale="1" pageWidth="850" pageHeight="1100" math="0" shadow="0">
      <root>
        <mxCell id="0" />
        <mxCell id="1" parent="0" />
        <mxCell id="-4eKaPXyOE0Zx8ptZXTG-9" value="" style="edgeStyle=orthogonalEdgeStyle;rounded=0;orthogonalLoop=1;jettySize=auto;html=1;" parent="1" source="-4eKaPXyOE0Zx8ptZXTG-1" target="-4eKaPXyOE0Zx8ptZXTG-2" edge="1">
          <mxGeometry relative="1" as="geometry" />
        </mxCell>
        <mxCell id="-4eKaPXyOE0Zx8ptZXTG-1" value="Chatbot active on keyword" style="rounded=0;whiteSpace=wrap;html=1;" parent="1" vertex="1">
          <mxGeometry x="200" y="30" width="120" height="60" as="geometry" />
        </mxCell>
        <mxCell id="-4eKaPXyOE0Zx8ptZXTG-10" value="" style="edgeStyle=orthogonalEdgeStyle;rounded=0;orthogonalLoop=1;jettySize=auto;html=1;" parent="1" source="-4eKaPXyOE0Zx8ptZXTG-2" target="-4eKaPXyOE0Zx8ptZXTG-3" edge="1">
          <mxGeometry relative="1" as="geometry" />
        </mxCell>
        <mxCell id="-4eKaPXyOE0Zx8ptZXTG-2" value="Inquire about &lt;br&gt;disease" style="rounded=0;whiteSpace=wrap;html=1;" parent="1" vertex="1">
          <mxGeometry x="200" y="120" width="120" height="60" as="geometry" />
        </mxCell>
        <mxCell id="-4eKaPXyOE0Zx8ptZXTG-11" value="" style="edgeStyle=orthogonalEdgeStyle;rounded=0;orthogonalLoop=1;jettySize=auto;html=1;" parent="1" source="-4eKaPXyOE0Zx8ptZXTG-3" target="-4eKaPXyOE0Zx8ptZXTG-4" edge="1">
          <mxGeometry relative="1" as="geometry" />
        </mxCell>
        <mxCell id="-4eKaPXyOE0Zx8ptZXTG-3" value="Convert speech&lt;br&gt;to text" style="rounded=0;whiteSpace=wrap;html=1;" parent="1" vertex="1">
          <mxGeometry x="200" y="214" width="120" height="60" as="geometry" />
        </mxCell>
        <mxCell id="-4eKaPXyOE0Zx8ptZXTG-12" value="" style="edgeStyle=orthogonalEdgeStyle;rounded=0;orthogonalLoop=1;jettySize=auto;html=1;" parent="1" source="-4eKaPXyOE0Zx8ptZXTG-4" target="-4eKaPXyOE0Zx8ptZXTG-5" edge="1">
          <mxGeometry relative="1" as="geometry" />
        </mxCell>
        <mxCell id="-4eKaPXyOE0Zx8ptZXTG-4" value="Extract disease&lt;br&gt;information&lt;br&gt;from conversation" style="rounded=0;whiteSpace=wrap;html=1;" parent="1" vertex="1">
          <mxGeometry x="200" y="310" width="120" height="60" as="geometry" />
        </mxCell>
        <mxCell id="-4eKaPXyOE0Zx8ptZXTG-13" value="" style="edgeStyle=orthogonalEdgeStyle;rounded=0;orthogonalLoop=1;jettySize=auto;html=1;" parent="1" source="-4eKaPXyOE0Zx8ptZXTG-5" target="-4eKaPXyOE0Zx8ptZXTG-6" edge="1">
          <mxGeometry relative="1" as="geometry" />
        </mxCell>
        <mxCell id="-4eKaPXyOE0Zx8ptZXTG-14" value="" style="edgeStyle=orthogonalEdgeStyle;rounded=0;orthogonalLoop=1;jettySize=auto;html=1;" parent="1" source="-4eKaPXyOE0Zx8ptZXTG-5" target="-4eKaPXyOE0Zx8ptZXTG-8" edge="1">
          <mxGeometry relative="1" as="geometry" />
        </mxCell>
        <mxCell id="-4eKaPXyOE0Zx8ptZXTG-5" value="Measure health&lt;br&gt;data" style="rounded=0;whiteSpace=wrap;html=1;" parent="1" vertex="1">
          <mxGeometry x="200" y="410" width="120" height="60" as="geometry" />
        </mxCell>
        <mxCell id="-4eKaPXyOE0Zx8ptZXTG-6" value="Update patient&lt;br&gt;profile in &lt;br&gt;database" style="rounded=0;whiteSpace=wrap;html=1;" parent="1" vertex="1">
          <mxGeometry x="390" y="410" width="120" height="60" as="geometry" />
        </mxCell>
        <mxCell id="-4eKaPXyOE0Zx8ptZXTG-8" value="Generate patient&lt;br&gt;case report" style="rounded=0;whiteSpace=wrap;html=1;" parent="1" vertex="1">
          <mxGeometry x="200" y="510" width="120" height="60" as="geometry" />
        </mxCell>
      </root>
    </mxGraphModel>
  </diagram>
</mxfile>
